<svg width="4105" height="2391" xmlns="http://www.w3.org/2000/svg" xmlns:xlink="http://www.w3.org/1999/xlink" xml:space="preserve" overflow="hidden"><defs><clipPath id="clip0"><rect x="5583" y="2575" width="4105" height="2391"/></clipPath></defs><g clip-path="url(#clip0)" transform="translate(-5583 -2575)"><rect x="5583" y="2576" width="4105" height="2390" fill="#FFFFFF"/><g><path d="M6106.5 4371.64 9637.5 4371.64M6106.5 4180.64 9637.5 4180.64M6106.5 3990.63 9637.5 3990.63M6106.5 3800.62 9637.5 3800.62M6106.5 3610.62 9637.5 3610.62M6106.5 3420.61 9637.5 3420.61M6106.5 3230.61 9637.5 3230.61M6106.5 3040.6 9637.5 3040.6M6106.5 2850.59 9637.5 2850.59M6106.5 2660.5 9637.5 2660.5" stroke="#D9D9D9" stroke-width="6.875" stroke-linejoin="round" stroke-miterlimit="10" fill="none"/></g><g><path d="M6238.71 4246.64 6680.72 4246.64 6680.72 4561.5 6238.71 4561.5ZM6945.73 4267.64 7386.74 4267.64 7386.74 4561.5 6945.73 4561.5ZM7651.75 4228.64 8092.77 4228.64 8092.77 4561.5 7651.75 4561.5ZM8357.77 4236.64 8798.79 4236.64 8798.79 4561.5 8357.77 4561.5ZM9063.8 4226.64 9504.81 4226.64 9504.81 4561.5 9063.8 4561.5Z" stroke="#000000" stroke-width="6.875" stroke-linejoin="round" stroke-miterlimit="10" fill="#F4B183"/></g><g><path d="M6238.71 3210.61 6680.72 3210.61 6680.72 4246.64 6238.71 4246.64ZM6945.73 3168.6 7386.74 3168.6 7386.74 4267.64 6945.73 4267.64ZM7651.75 3145.6 8092.77 3145.6 8092.77 4228.64 7651.75 4228.64ZM8357.77 3146.6 8798.79 3146.6 8798.79 4236.64 8357.77 4236.64ZM9063.8 3158.6 9504.81 3158.6 9504.81 4226.64 9063.8 4226.64Z" stroke="#000000" stroke-width="6.875" stroke-linejoin="round" stroke-miterlimit="10" fill="#BFBFBF"/></g><g><path d="M6238.71 3120.6 6680.72 3120.6 6680.72 3210.61 6238.71 3210.61ZM6945.73 3066.6 7386.74 3066.6 7386.74 3168.6 6945.73 3168.6ZM7651.75 3043.6 8092.77 3043.6 8092.77 3145.6 7651.75 3145.6ZM8357.77 3036.6 8798.79 3036.6 8798.79 3146.6 8357.77 3146.6ZM9063.8 3054.6 9504.81 3054.6 9504.81 3158.6 9063.8 3158.6Z" stroke="#000000" stroke-width="6.875" stroke-linejoin="round" stroke-miterlimit="10" fill="#FFE699"/></g><g><path d="M6238.71 2953.6 6680.72 2953.6 6680.72 3120.6 6238.71 3120.6ZM6945.73 2904.6 7386.74 2904.6 7386.74 3066.6 6945.73 3066.6ZM7651.75 2887.59 8092.77 2887.59 8092.77 3043.6 7651.75 3043.6ZM8357.77 2873.59 8798.79 2873.59 8798.79 3036.6 8357.77 3036.6ZM9063.8 2865.59 9504.81 2865.59 9504.81 3054.6 9063.8 3054.6Z" stroke="#000000" stroke-width="6.875" stroke-linejoin="round" stroke-miterlimit="10" fill="#9DC3E6"/></g><g><path d="M6459.71 4246.64 6459.71 4267.5M6459.71 4246.64 6459.71 4226.5M6449.5 4267.5 6470.5 4267.5M6449.5 4226.5 6470.5 4226.5" stroke="#595959" stroke-width="6.875" stroke-linejoin="round" stroke-miterlimit="10" fill="none"/></g><g><path d="M7165.74 4267.64 7165.74 4290.5M7165.74 4267.64 7165.74 4245.5M7155.5 4290.5 7176.5 4290.5M7155.5 4245.5 7176.5 4245.5" stroke="#595959" stroke-width="6.875" stroke-linejoin="round" stroke-miterlimit="10" fill="none"/></g><g><path d="M7871.76 4228.64 7871.76 4255.5M7871.76 4228.64 7871.76 4201.5M7861.5 4255.5 7882.5 4255.5M7861.5 4201.5 7882.5 4201.5" stroke="#595959" stroke-width="6.875" stroke-linejoin="round" stroke-miterlimit="10" fill="none"/></g><g><path d="M8577.78 4236.64 8577.78 4261.5M8577.78 4236.64 8577.78 4212.5M8567.5 4261.5 8588.5 4261.5M8567.5 4212.5 8588.5 4212.5" stroke="#595959" stroke-width="6.875" stroke-linejoin="round" stroke-miterlimit="10" fill="none"/></g><g><path d="M9283.8 4226.64 9283.8 4250.5M9283.8 4226.64 9283.8 4202.5M9273.5 4250.5 9294.5 4250.5M9273.5 4202.5 9294.5 4202.5" stroke="#595959" stroke-width="6.875" stroke-linejoin="round" stroke-miterlimit="10" fill="none"/></g><g><path d="M6459.71 3210.61 6459.71 3238.5M6459.71 3210.61 6459.71 3183.5M6449.5 3238.5 6470.5 3238.5M6449.5 3183.5 6470.5 3183.5" stroke="#595959" stroke-width="6.875" stroke-linejoin="round" stroke-miterlimit="10" fill="none"/></g><g><path d="M7165.74 3168.6 7165.74 3202.5M7165.74 3168.6 7165.74 3134.5M7155.5 3202.5 7176.5 3202.5M7155.5 3134.5 7176.5 3134.5" stroke="#595959" stroke-width="6.875" stroke-linejoin="round" stroke-miterlimit="10" fill="none"/></g><g><path d="M7871.76 3145.6 7871.76 3173.5M7871.76 3145.6 7871.76 3118.5M7861.5 3173.5 7882.5 3173.5M7861.5 3118.5 7882.5 3118.5" stroke="#595959" stroke-width="6.875" stroke-linejoin="round" stroke-miterlimit="10" fill="none"/></g><g><path d="M8577.78 3146.6 8577.78 3174.5M8577.78 3146.6 8577.78 3118.5M8567.5 3174.5 8588.5 3174.5M8567.5 3118.5 8588.5 3118.5" stroke="#595959" stroke-width="6.875" stroke-linejoin="round" stroke-miterlimit="10" fill="none"/></g><g><path d="M9283.8 3158.6 9283.8 3200.5M9283.8 3158.6 9283.8 3115.5M9273.5 3200.5 9294.5 3200.5M9273.5 3115.5 9294.5 3115.5" stroke="#595959" stroke-width="6.875" stroke-linejoin="round" stroke-miterlimit="10" fill="none"/></g><g><path d="M6459.71 3120.6 6459.71 3127.5M6459.71 3120.6 6459.71 3112.5M6449.5 3127.5 6470.5 3127.5M6449.5 3112.5 6470.5 3112.5" stroke="#595959" stroke-width="6.875" stroke-linejoin="round" stroke-miterlimit="10" fill="none"/></g><g><path d="M7165.74 3066.6 7165.74 3081.5M7165.74 3066.6 7165.74 3051.5M7155.5 3081.5 7176.5 3081.5M7155.5 3051.5 7176.5 3051.5" stroke="#595959" stroke-width="6.875" stroke-linejoin="round" stroke-miterlimit="10" fill="none"/></g><g><path d="M7871.76 3043.6 7871.76 3055.5M7871.76 3043.6 7871.76 3031.5M7861.5 3055.5 7882.5 3055.5M7861.5 3031.5 7882.5 3031.5" stroke="#595959" stroke-width="6.875" stroke-linejoin="round" stroke-miterlimit="10" fill="none"/></g><g><path d="M8577.78 3036.6 8577.78 3049.5M8577.78 3036.6 8577.78 3024.5M8567.5 3049.5 8588.5 3049.5M8567.5 3024.5 8588.5 3024.5" stroke="#595959" stroke-width="6.875" stroke-linejoin="round" stroke-miterlimit="10" fill="none"/></g><g><path d="M9283.8 3054.6 9283.8 3068.5M9283.8 3054.6 9283.8 3041.5M9273.5 3068.5 9294.5 3068.5M9273.5 3041.5 9294.5 3041.5" stroke="#595959" stroke-width="6.875" stroke-linejoin="round" stroke-miterlimit="10" fill="none"/></g><g><path d="M6459.71 2953.6 6459.71 2975.5M6459.71 2953.6 6459.71 2931.5M6449.5 2975.5 6470.5 2975.5M6449.5 2931.5 6470.5 2931.5" stroke="#595959" stroke-width="6.875" stroke-linejoin="round" stroke-miterlimit="10" fill="none"/></g><g><path d="M7165.74 2904.6 7165.74 2921.5M7165.74 2904.6 7165.74 2887.5M7155.5 2921.5 7176.5 2921.5M7155.5 2887.5 7176.5 2887.5" stroke="#595959" stroke-width="6.875" stroke-linejoin="round" stroke-miterlimit="10" fill="none"/></g><g><path d="M7871.76 2887.59 7871.76 2903.5M7871.76 2887.59 7871.76 2872.5M7861.5 2903.5 7882.5 2903.5M7861.5 2872.5 7882.5 2872.5" stroke="#595959" stroke-width="6.875" stroke-linejoin="round" stroke-miterlimit="10" fill="none"/></g><g><path d="M8577.78 2873.59 8577.78 2886.5M8577.78 2873.59 8577.78 2860.5M8567.5 2886.5 8588.5 2886.5M8567.5 2860.5 8588.5 2860.5" stroke="#595959" stroke-width="6.875" stroke-linejoin="round" stroke-miterlimit="10" fill="none"/></g><g><path d="M9283.8 2865.59 9283.8 2894.5M9283.8 2865.59 9283.8 2836.5M9273.5 2894.5 9294.5 2894.5M9273.5 2836.5 9294.5 2836.5" stroke="#595959" stroke-width="6.875" stroke-linejoin="round" stroke-miterlimit="10" fill="none"/></g><g><path d="M6106.5 4561.5 9637.5 4561.5" stroke="#D9D9D9" stroke-width="3.4375" stroke-linejoin="round" stroke-miterlimit="10" fill="none" fill-rule="evenodd"/></g><g><text fill="#404040" font-family="Calibri,Calibri_MSFontService,sans-serif" font-weight="700" font-size="110" transform="matrix(1 0 0 1 6321.38 2912)">84.6%</text></g><g><text fill="#404040" font-family="Calibri,Calibri_MSFontService,sans-serif" font-weight="700" font-size="110" transform="matrix(1 0 0 1 7027.48 2870)">87.2%</text></g><g><text fill="#404040" font-family="Calibri,Calibri_MSFontService,sans-serif" font-weight="700" font-size="110" transform="matrix(1 0 0 1 7733.59 2841)">88.0%</text></g><g><text fill="#404040" font-family="Calibri,Calibri_MSFontService,sans-serif" font-weight="700" font-size="110" transform="matrix(1 0 0 1 8439.7 2821)">88.8%</text></g><g><text fill="#404040" font-family="Calibri,Calibri_MSFontService,sans-serif" font-weight="700" font-size="110" transform="matrix(1 0 0 1 9145.81 2817)">89.2%</text></g><g><text fill="#595959" font-family="Calibri,Calibri_MSFontService,sans-serif" font-weight="400" font-size="101" transform="matrix(1 0 0 1 5890.02 4590)">0%</text></g><g><text fill="#595959" font-family="Calibri,Calibri_MSFontService,sans-serif" font-weight="400" font-size="101" transform="matrix(1 0 0 1 5838.91 4400)">10%</text></g><g><text fill="#595959" font-family="Calibri,Calibri_MSFontService,sans-serif" font-weight="400" font-size="101" transform="matrix(1 0 0 1 5838.91 4210)">20%</text></g><g><text fill="#595959" font-family="Calibri,Calibri_MSFontService,sans-serif" font-weight="400" font-size="101" transform="matrix(1 0 0 1 5838.91 4020)">30%</text></g><g><text fill="#595959" font-family="Calibri,Calibri_MSFontService,sans-serif" font-weight="400" font-size="101" transform="matrix(1 0 0 1 5838.91 3830)">40%</text></g><g><text fill="#595959" font-family="Calibri,Calibri_MSFontService,sans-serif" font-weight="400" font-size="101" transform="matrix(1 0 0 1 5838.91 3640)">50%</text></g><g><text fill="#595959" font-family="Calibri,Calibri_MSFontService,sans-serif" font-weight="400" font-size="101" transform="matrix(1 0 0 1 5838.91 3450)">60%</text></g><g><text fill="#595959" font-family="Calibri,Calibri_MSFontService,sans-serif" font-weight="400" font-size="101" transform="matrix(1 0 0 1 5838.91 3259)">70%</text></g><g><text fill="#595959" font-family="Calibri,Calibri_MSFontService,sans-serif" font-weight="400" font-size="101" transform="matrix(1 0 0 1 5838.91 3069)">80%</text></g><g><text fill="#595959" font-family="Calibri,Calibri_MSFontService,sans-serif" font-weight="400" font-size="101" transform="matrix(1 0 0 1 5838.91 2879)">90%</text></g><g><text fill="#595959" font-family="Calibri,Calibri_MSFontService,sans-serif" font-weight="400" font-size="101" transform="matrix(1 0 0 1 5787.81 2689)">100%</text></g><g><text fill="#595959" font-family="Calibri,Calibri_MSFontService,sans-serif" font-weight="400" font-size="101" transform="matrix(1 0 0 1 6239.94 4721)">2001-2004</text></g><g><text fill="#595959" font-family="Calibri,Calibri_MSFontService,sans-serif" font-weight="400" font-size="101" transform="matrix(1 0 0 1 6946.05 4721)">2005-2008</text></g><g><text fill="#595959" font-family="Calibri,Calibri_MSFontService,sans-serif" font-weight="400" font-size="101" transform="matrix(1 0 0 1 7652.16 4721)">2009-2012</text></g><g><text fill="#595959" font-family="Calibri,Calibri_MSFontService,sans-serif" font-weight="400" font-size="101" transform="matrix(1 0 0 1 8358.27 4721)">2013-2016</text></g><g><text fill="#595959" font-family="Calibri,Calibri_MSFontService,sans-serif" font-weight="400" font-size="101" transform="matrix(1 0 0 1 9064.38 4721)">2017-2020</text></g><g><text fill="#595959" font-family="Calibri,Calibri_MSFontService,sans-serif" font-weight="400" font-size="110" transform="matrix(6.12323e-17 -1 1 6.12323e-17 5744.8 3716)">CKM</text></g><g><rect x="6665.5" y="4828.5" width="60" height="60" stroke="#000000" stroke-width="6.875" stroke-linejoin="round" stroke-miterlimit="10" fill="#F4B183"/></g><g><text fill="#595959" font-family="Calibri,Calibri_MSFontService,sans-serif" font-weight="400" font-size="110" transform="matrix(1 0 0 1 6754.09 4890)">Stage 1</text></g><g><rect x="7184.5" y="4828.5" width="61" height="60" stroke="#000000" stroke-width="6.875" stroke-linejoin="round" stroke-miterlimit="10" fill="#BFBFBF"/></g><g><text fill="#595959" font-family="Calibri,Calibri_MSFontService,sans-serif" font-weight="400" font-size="110" transform="matrix(1 0 0 1 7273.79 4890)">Stage 2</text></g><g><rect x="7704.5" y="4828.5" width="61" height="60" stroke="#000000" stroke-width="6.875" stroke-linejoin="round" stroke-miterlimit="10" fill="#FFE699"/></g><g><text fill="#595959" font-family="Calibri,Calibri_MSFontService,sans-serif" font-weight="400" font-size="110" transform="matrix(1 0 0 1 7793.5 4890)">Stage 3</text></g><g><rect x="8224.5" y="4828.5" width="60" height="60" stroke="#000000" stroke-width="6.875" stroke-linejoin="round" stroke-miterlimit="10" fill="#9DC3E6"/></g><g><text fill="#595959" font-family="Calibri,Calibri_MSFontService,sans-serif" font-weight="400" font-size="110" transform="matrix(1 0 0 1 8313.21 4890)">Stage 4</text></g></g></svg>