<svg width="4037" height="2559" xmlns="http://www.w3.org/2000/svg" xmlns:xlink="http://www.w3.org/1999/xlink" xml:space="preserve" overflow="hidden"><defs><clipPath id="clip0"><rect x="5367" y="2750" width="4037" height="2559"/></clipPath></defs><g clip-path="url(#clip0)" transform="translate(-5367 -2750)"><rect x="5367" y="2750" width="4037" height="2559" fill="#FFFFFF"/><g><path d="M5891.5 4696.65 9353.5 4696.65M5891.5 4489.65 9353.5 4489.65M5891.5 4282.64 9353.5 4282.64M5891.5 4075.63 9353.5 4075.63M5891.5 3869.63 9353.5 3869.63M5891.5 3662.62 9353.5 3662.62M5891.5 3455.61 9353.5 3455.61M5891.5 3248.61 9353.5 3248.61M5891.5 3041.6 9353.5 3041.6M5891.5 2834.5 9353.5 2834.5" stroke="#D9D9D9" stroke-width="6.875" stroke-linejoin="round" stroke-miterlimit="10" fill="none"/></g><g><path d="M6020.7 4561.65 6453.71 4561.65 6453.71 4903.5 6020.7 4903.5ZM6713.72 4584.65 7145.73 4584.65 7145.73 4903.5 6713.72 4903.5ZM7405.74 4541.65 7838.76 4541.65 7838.76 4903.5 7405.74 4903.5ZM8097.77 4550.65 8530.78 4550.65 8530.78 4903.5 8097.77 4903.5ZM8790.79 4539.65 9222.8 4539.65 9222.8 4903.5 8790.79 4903.5Z" stroke="#000000" stroke-width="6.875" stroke-linejoin="round" stroke-miterlimit="10" fill="#F4B183"/></g><g><path d="M6020.7 3433.61 6453.71 3433.61 6453.71 4561.65 6020.7 4561.65ZM6713.72 3387.61 7145.73 3387.61 7145.73 4584.65 6713.72 4584.65ZM7405.74 3363.61 7838.76 3363.61 7838.76 4541.65 7405.74 4541.65ZM8097.77 3363.61 8530.78 3363.61 8530.78 4550.65 8097.77 4550.65ZM8790.79 3376.61 9222.8 3376.61 9222.8 4539.65 8790.79 4539.65Z" stroke="#000000" stroke-width="6.875" stroke-linejoin="round" stroke-miterlimit="10" fill="#BFBFBF"/></g><g><path d="M6020.7 3335.61 6453.71 3335.61 6453.71 3433.61 6020.7 3433.61ZM6713.72 3276.61 7145.73 3276.61 7145.73 3387.61 6713.72 3387.61ZM7405.74 3251.61 7838.76 3251.61 7838.76 3363.61 7405.74 3363.61ZM8097.77 3244.61 8530.78 3244.61 8530.78 3363.61 8097.77 3363.61ZM8790.79 3263.61 9222.8 3263.61 9222.8 3376.61 8790.79 3376.61Z" stroke="#000000" stroke-width="6.875" stroke-linejoin="round" stroke-miterlimit="10" fill="#FFE699"/></g><g><path d="M6020.7 3154.6 6453.71 3154.6 6453.71 3335.61 6020.7 3335.61ZM6713.72 3100.6 7145.73 3100.6 7145.73 3276.61 6713.72 3276.61ZM7405.74 3082.6 7838.76 3082.6 7838.76 3251.61 7405.74 3251.61ZM8097.77 3066.6 8530.78 3066.6 8530.78 3244.61 8097.77 3244.61ZM8790.79 3057.6 9222.8 3057.6 9222.8 3263.61 8790.79 3263.61Z" stroke="#000000" stroke-width="6.875" stroke-linejoin="round" stroke-miterlimit="10" fill="#9DC3E6"/></g><g><path d="M6237.71 4561.65 6237.71 4583.5M6237.71 4561.65 6237.71 4539.5M6227.5 4583.5 6247.5 4583.5M6227.5 4539.5 6247.5 4539.5" stroke="#595959" stroke-width="6.875" stroke-linejoin="round" stroke-miterlimit="10" fill="none"/></g><g><path d="M6929.73 4584.65 6929.73 4609.5M6929.73 4584.65 6929.73 4559.5M6919.5 4609.5 6940.5 4609.5M6919.5 4559.5 6940.5 4559.5" stroke="#595959" stroke-width="6.875" stroke-linejoin="round" stroke-miterlimit="10" fill="none"/></g><g><path d="M7621.75 4541.65 7621.75 4570.5M7621.75 4541.65 7621.75 4511.5M7611.5 4570.5 7632.5 4570.5M7611.5 4511.5 7632.5 4511.5" stroke="#595959" stroke-width="6.875" stroke-linejoin="round" stroke-miterlimit="10" fill="none"/></g><g><path d="M8314.77 4550.65 8314.77 4577.5M8314.77 4550.65 8314.77 4524.5M8304.5 4577.5 8324.5 4577.5M8304.5 4524.5 8324.5 4524.5" stroke="#595959" stroke-width="6.875" stroke-linejoin="round" stroke-miterlimit="10" fill="none"/></g><g><path d="M9006.8 4539.65 9006.8 4566.5M9006.8 4539.65 9006.8 4513.5M8996.5 4566.5 9017.5 4566.5M8996.5 4513.5 9017.5 4513.5" stroke="#595959" stroke-width="6.875" stroke-linejoin="round" stroke-miterlimit="10" fill="none"/></g><g><path d="M6237.71 3433.61 6237.71 3464.5M6237.71 3433.61 6237.71 3403.5M6227.5 3464.5 6247.5 3464.5M6227.5 3403.5 6247.5 3403.5" stroke="#595959" stroke-width="6.875" stroke-linejoin="round" stroke-miterlimit="10" fill="none"/></g><g><path d="M6929.73 3387.61 6929.73 3425.5M6929.73 3387.61 6929.73 3350.5M6919.5 3425.5 6940.5 3425.5M6919.5 3350.5 6940.5 3350.5" stroke="#595959" stroke-width="6.875" stroke-linejoin="round" stroke-miterlimit="10" fill="none"/></g><g><path d="M7621.75 3363.61 7621.75 3392.5M7621.75 3363.61 7621.75 3333.5M7611.5 3392.5 7632.5 3392.5M7611.5 3333.5 7632.5 3333.5" stroke="#595959" stroke-width="6.875" stroke-linejoin="round" stroke-miterlimit="10" fill="none"/></g><g><path d="M8314.77 3363.61 8314.77 3393.5M8314.77 3363.61 8314.77 3333.5M8304.5 3393.5 8324.5 3393.5M8304.5 3333.5 8324.5 3333.5" stroke="#595959" stroke-width="6.875" stroke-linejoin="round" stroke-miterlimit="10" fill="none"/></g><g><path d="M9006.8 3376.61 9006.8 3422.5M9006.8 3376.61 9006.8 3330.5M8996.5 3422.5 9017.5 3422.5M8996.5 3330.5 9017.5 3330.5" stroke="#595959" stroke-width="6.875" stroke-linejoin="round" stroke-miterlimit="10" fill="none"/></g><g><path d="M6237.71 3335.61 6237.71 3343.5M6237.71 3335.61 6237.71 3327.5M6227.5 3343.5 6247.5 3343.5M6227.5 3327.5 6247.5 3327.5" stroke="#595959" stroke-width="6.875" stroke-linejoin="round" stroke-miterlimit="10" fill="none"/></g><g><path d="M6929.73 3276.61 6929.73 3292.5M6929.73 3276.61 6929.73 3260.5M6919.5 3292.5 6940.5 3292.5M6919.5 3260.5 6940.5 3260.5" stroke="#595959" stroke-width="6.875" stroke-linejoin="round" stroke-miterlimit="10" fill="none"/></g><g><path d="M7621.75 3251.61 7621.75 3264.5M7621.75 3251.61 7621.75 3239.5M7611.5 3264.5 7632.5 3264.5M7611.5 3239.5 7632.5 3239.5" stroke="#595959" stroke-width="6.875" stroke-linejoin="round" stroke-miterlimit="10" fill="none"/></g><g><path d="M8314.77 3244.61 8314.77 3257.5M8314.77 3244.61 8314.77 3231.5M8304.5 3257.5 8324.5 3257.5M8304.5 3231.5 8324.5 3231.5" stroke="#595959" stroke-width="6.875" stroke-linejoin="round" stroke-miterlimit="10" fill="none"/></g><g><path d="M9006.8 3263.61 9006.8 3278.5M9006.8 3263.61 9006.8 3249.5M8996.5 3278.5 9017.5 3278.5M8996.5 3249.5 9017.5 3249.5" stroke="#595959" stroke-width="6.875" stroke-linejoin="round" stroke-miterlimit="10" fill="none"/></g><g><path d="M6237.71 3154.6 6237.71 3178.5M6237.71 3154.6 6237.71 3130.5M6227.5 3178.5 6247.5 3178.5M6227.5 3130.5 6247.5 3130.5" stroke="#595959" stroke-width="6.875" stroke-linejoin="round" stroke-miterlimit="10" fill="none"/></g><g><path d="M6929.73 3100.6 6929.73 3118.5M6929.73 3100.6 6929.73 3082.5M6919.5 3118.5 6940.5 3118.5M6919.5 3082.5 6940.5 3082.5" stroke="#595959" stroke-width="6.875" stroke-linejoin="round" stroke-miterlimit="10" fill="none"/></g><g><path d="M7621.75 3082.6 7621.75 3098.5M7621.75 3082.6 7621.75 3065.5M7611.5 3098.5 7632.5 3098.5M7611.5 3065.5 7632.5 3065.5" stroke="#595959" stroke-width="6.875" stroke-linejoin="round" stroke-miterlimit="10" fill="none"/></g><g><path d="M8314.77 3066.6 8314.77 3080.5M8314.77 3066.6 8314.77 3052.5M8304.5 3080.5 8324.5 3080.5M8304.5 3052.5 8324.5 3052.5" stroke="#595959" stroke-width="6.875" stroke-linejoin="round" stroke-miterlimit="10" fill="none"/></g><g><path d="M9006.8 3057.6 9006.8 3089.5M9006.8 3057.6 9006.8 3026.5M8996.5 3089.5 9017.5 3089.5M8996.5 3026.5 9017.5 3026.5" stroke="#595959" stroke-width="6.875" stroke-linejoin="round" stroke-miterlimit="10" fill="none"/></g><g><path d="M5891.5 4903.5 9353.5 4903.5" stroke="#D9D9D9" stroke-width="3.4375" stroke-linejoin="round" stroke-miterlimit="10" fill="none" fill-rule="evenodd"/></g><g><path d="M8314.5 3066.5 8314.5 3045.5" stroke="#A6A6A6" stroke-width="3.4375" stroke-linejoin="round" stroke-miterlimit="10" fill="none"/></g><g><text font-family="Calibri,Calibri_MSFontService,sans-serif" font-weight="700" font-size="110" transform="matrix(1 0 0 1 6099.08 3108)">84.6%</text></g><g><text font-family="Calibri,Calibri_MSFontService,sans-serif" font-weight="700" font-size="110" transform="matrix(1 0 0 1 6791.44 3062)">87.2%</text></g><g><text font-family="Calibri,Calibri_MSFontService,sans-serif" font-weight="700" font-size="110" transform="matrix(1 0 0 1 7483.8 3031)">88.0%</text></g><g><text font-family="Calibri,Calibri_MSFontService,sans-serif" font-weight="700" font-size="110" transform="matrix(1 0 0 1 8176.16 3010)">88.8%</text></g><g><text font-family="Calibri,Calibri_MSFontService,sans-serif" font-weight="700" font-size="110" transform="matrix(1 0 0 1 8868.52 3005)">89.2%</text></g><g><text font-family="Calibri,Calibri_MSFontService,sans-serif" font-weight="400" font-size="101" transform="matrix(1 0 0 1 5674.6 4933)">0%</text></g><g><text font-family="Calibri,Calibri_MSFontService,sans-serif" font-weight="400" font-size="101" transform="matrix(1 0 0 1 5623.5 4726)">10%</text></g><g><text font-family="Calibri,Calibri_MSFontService,sans-serif" font-weight="400" font-size="101" transform="matrix(1 0 0 1 5623.5 4519)">20%</text></g><g><text font-family="Calibri,Calibri_MSFontService,sans-serif" font-weight="400" font-size="101" transform="matrix(1 0 0 1 5623.5 4312)">30%</text></g><g><text font-family="Calibri,Calibri_MSFontService,sans-serif" font-weight="400" font-size="101" transform="matrix(1 0 0 1 5623.5 4105)">40%</text></g><g><text font-family="Calibri,Calibri_MSFontService,sans-serif" font-weight="400" font-size="101" transform="matrix(1 0 0 1 5623.5 3898)">50%</text></g><g><text font-family="Calibri,Calibri_MSFontService,sans-serif" font-weight="400" font-size="101" transform="matrix(1 0 0 1 5623.5 3691)">60%</text></g><g><text font-family="Calibri,Calibri_MSFontService,sans-serif" font-weight="400" font-size="101" transform="matrix(1 0 0 1 5623.5 3484)">70%</text></g><g><text font-family="Calibri,Calibri_MSFontService,sans-serif" font-weight="400" font-size="101" transform="matrix(1 0 0 1 5623.5 3277)">80%</text></g><g><text font-family="Calibri,Calibri_MSFontService,sans-serif" font-weight="400" font-size="101" transform="matrix(1 0 0 1 5623.5 3070)">90%</text></g><g><text font-family="Calibri,Calibri_MSFontService,sans-serif" font-weight="400" font-size="101" transform="matrix(1 0 0 1 5572.39 2863)">100%</text></g><g><text font-family="Calibri,Calibri_MSFontService,sans-serif" font-weight="400" font-size="101" transform="matrix(1 0 0 1 6017.65 5064)">2001-2004</text></g><g><text font-family="Calibri,Calibri_MSFontService,sans-serif" font-weight="400" font-size="101" transform="matrix(1 0 0 1 6710.01 5064)">2005-2008</text></g><g><text font-family="Calibri,Calibri_MSFontService,sans-serif" font-weight="400" font-size="101" transform="matrix(1 0 0 1 7402.37 5064)">2009-2012</text></g><g><text font-family="Calibri,Calibri_MSFontService,sans-serif" font-weight="400" font-size="101" transform="matrix(1 0 0 1 8094.73 5064)">2013-2016</text></g><g><text font-family="Calibri,Calibri_MSFontService,sans-serif" font-weight="400" font-size="101" transform="matrix(1 0 0 1 8787.09 5064)">2017-2020</text></g><g><text font-family="Calibri,Calibri_MSFontService,sans-serif" font-weight="400" font-size="110" transform="matrix(6.12323e-17 -1 1 6.12323e-17 5529.38 3974)">CKM</text></g><g><rect x="6415.5" y="5170.5" width="60" height="61" stroke="#000000" stroke-width="6.875" stroke-linejoin="round" stroke-miterlimit="10" fill="#F4B183"/></g><g><text font-family="Calibri,Calibri_MSFontService,sans-serif" font-weight="400" font-size="110" transform="matrix(1 0 0 1 6504.29 5233)">Stage 1</text></g><g><rect x="6935.5" y="5170.5" width="60" height="61" stroke="#000000" stroke-width="6.875" stroke-linejoin="round" stroke-miterlimit="10" fill="#BFBFBF"/></g><g><text font-family="Calibri,Calibri_MSFontService,sans-serif" font-weight="400" font-size="110" transform="matrix(1 0 0 1 7024 5233)">Stage 2</text></g><g><rect x="7454.5" y="5170.5" width="61" height="61" stroke="#000000" stroke-width="6.875" stroke-linejoin="round" stroke-miterlimit="10" fill="#FFE699"/></g><g><text font-family="Calibri,Calibri_MSFontService,sans-serif" font-weight="400" font-size="110" transform="matrix(1 0 0 1 7543.71 5233)">Stage 3</text></g><g><rect x="7974.5" y="5170.5" width="60" height="61" stroke="#000000" stroke-width="6.875" stroke-linejoin="round" stroke-miterlimit="10" fill="#9DC3E6"/></g><g><text font-family="Calibri,Calibri_MSFontService,sans-serif" font-weight="400" font-size="110" transform="matrix(1 0 0 1 8063.42 5233)">Stage 4</text></g></g></svg>