<svg width="2145" height="1457" xmlns="http://www.w3.org/2000/svg" xmlns:xlink="http://www.w3.org/1999/xlink" xml:space="preserve" overflow="hidden"><defs><clipPath id="clip0"><rect x="0" y="0" width="2145" height="1457"/></clipPath></defs><g clip-path="url(#clip0)"><rect x="0" y="0" width="2145" height="1457" fill="#FFFFFF"/><g><path d="M220.5 1027.53 2094.5 1027.53M220.5 905.53 2094.5 905.53M220.5 783.526 2094.5 783.526M220.5 661.522 2094.5 661.522M220.5 538.518 2094.5 538.518M220.5 416.514 2094.5 416.514M220.5 294.51 2094.5 294.51M220.5 172.506 2094.5 172.506M220.5 50.5 2094.5 50.5" stroke="#D9D9D9" stroke-width="3.4375" stroke-linejoin="round" stroke-miterlimit="10" fill="none"/></g><g><path d="M220.5 1149.5 2094.5 1149.5" stroke="#D9D9D9" stroke-width="3.4375" stroke-linejoin="round" stroke-miterlimit="10" fill="none" fill-rule="evenodd"/></g><g><path d="M283 844 408.013 764.025 533.017 733.024 658.022 730.024 783.026 720.024 908.03 715.023 1032.03 704 1157.04 762.025 1282.04 759.025 1407.05 756.025 1532.05 759.025 1657.05 783.026 1782.06 709.023 1907.06 718.024 2032 720.024" stroke="#7F7F7F" stroke-width="10.3125" stroke-linecap="round" stroke-linejoin="round" stroke-miterlimit="10" stroke-dasharray="0 20.625" fill="none"/></g><g><path d="M293.499 844.5C293.499 850.575 288.575 855.499 282.5 855.499 276.425 855.499 271.5 850.575 271.5 844.5 271.5 838.425 276.425 833.5 282.5 833.5 288.575 833.5 293.499 838.425 293.499 844.5Z" stroke="#7F7F7F" stroke-width="3.4375" stroke-linejoin="round" stroke-miterlimit="10" fill="#7F7F7F"/><path d="M418.499 763.5C418.499 769.575 413.575 774.499 407.5 774.499 401.425 774.499 396.5 769.575 396.5 763.5 396.5 757.425 401.425 752.5 407.5 752.5 413.575 752.5 418.499 757.425 418.499 763.5Z" stroke="#7F7F7F" stroke-width="3.4375" stroke-linejoin="round" stroke-miterlimit="10" fill="#7F7F7F"/><path d="M543.499 732.5C543.499 738.575 538.575 743.499 532.5 743.499 526.425 743.499 521.5 738.575 521.5 732.5 521.5 726.425 526.425 721.5 532.5 721.5 538.575 721.5 543.499 726.425 543.499 732.5Z" stroke="#7F7F7F" stroke-width="3.4375" stroke-linejoin="round" stroke-miterlimit="10" fill="#7F7F7F"/><path d="M668.499 729.5C668.499 735.575 663.575 740.499 657.5 740.499 651.425 740.499 646.5 735.575 646.5 729.5 646.5 723.425 651.425 718.5 657.5 718.5 663.575 718.5 668.499 723.425 668.499 729.5Z" stroke="#7F7F7F" stroke-width="3.4375" stroke-linejoin="round" stroke-miterlimit="10" fill="#7F7F7F"/><path d="M793.499 720.5C793.499 726.575 788.574 731.499 782.5 731.499 776.425 731.499 771.5 726.575 771.5 720.5 771.5 714.425 776.425 709.5 782.5 709.5 788.574 709.5 793.499 714.425 793.499 720.5Z" stroke="#7F7F7F" stroke-width="3.4375" stroke-linejoin="round" stroke-miterlimit="10" fill="#7F7F7F"/><path d="M918.499 714.5C918.499 720.575 913.575 725.499 907.5 725.499 901.425 725.499 896.5 720.575 896.5 714.5 896.5 708.425 901.425 703.5 907.5 703.5 913.575 703.5 918.499 708.425 918.499 714.5Z" stroke="#7F7F7F" stroke-width="3.4375" stroke-linejoin="round" stroke-miterlimit="10" fill="#7F7F7F"/><path d="M1043.5 703.5C1043.5 709.575 1038.57 714.499 1032.5 714.499 1026.42 714.499 1021.5 709.575 1021.5 703.5 1021.5 697.425 1026.42 692.5 1032.5 692.5 1038.57 692.5 1043.5 697.425 1043.5 703.5Z" stroke="#7F7F7F" stroke-width="3.4375" stroke-linejoin="round" stroke-miterlimit="10" fill="#7F7F7F"/><path d="M1168.5 762.5C1168.5 768.575 1163.57 773.499 1157.5 773.499 1151.42 773.499 1146.5 768.575 1146.5 762.5 1146.5 756.425 1151.42 751.5 1157.5 751.5 1163.57 751.5 1168.5 756.425 1168.5 762.5Z" stroke="#7F7F7F" stroke-width="3.4375" stroke-linejoin="round" stroke-miterlimit="10" fill="#7F7F7F"/><path d="M1293.5 759.5C1293.5 765.575 1288.57 770.499 1282.5 770.499 1276.42 770.499 1271.5 765.575 1271.5 759.5 1271.5 753.425 1276.42 748.5 1282.5 748.5 1288.57 748.5 1293.5 753.425 1293.5 759.5Z" stroke="#7F7F7F" stroke-width="3.4375" stroke-linejoin="round" stroke-miterlimit="10" fill="#7F7F7F"/><path d="M1418.5 756.5C1418.5 762.575 1413.57 767.499 1407.5 767.499 1401.42 767.499 1396.5 762.575 1396.5 756.5 1396.5 750.425 1401.42 745.5 1407.5 745.5 1413.57 745.5 1418.5 750.425 1418.5 756.5Z" stroke="#7F7F7F" stroke-width="3.4375" stroke-linejoin="round" stroke-miterlimit="10" fill="#7F7F7F"/><path d="M1543.5 758.5C1543.5 764.575 1538.57 769.499 1532.5 769.499 1526.42 769.499 1521.5 764.575 1521.5 758.5 1521.5 752.425 1526.42 747.5 1532.5 747.5 1538.57 747.5 1543.5 752.425 1543.5 758.5Z" stroke="#7F7F7F" stroke-width="3.4375" stroke-linejoin="round" stroke-miterlimit="10" fill="#7F7F7F"/><path d="M1668.5 782.5C1668.5 788.574 1663.57 793.499 1657.5 793.499 1651.42 793.499 1646.5 788.574 1646.5 782.5 1646.5 776.425 1651.42 771.5 1657.5 771.5 1663.57 771.5 1668.5 776.425 1668.5 782.5Z" stroke="#7F7F7F" stroke-width="3.4375" stroke-linejoin="round" stroke-miterlimit="10" fill="#7F7F7F"/><path d="M1793.5 709.5C1793.5 715.575 1788.57 720.499 1782.5 720.499 1776.42 720.499 1771.5 715.575 1771.5 709.5 1771.5 703.425 1776.42 698.5 1782.5 698.5 1788.57 698.5 1793.5 703.425 1793.5 709.5Z" stroke="#7F7F7F" stroke-width="3.4375" stroke-linejoin="round" stroke-miterlimit="10" fill="#7F7F7F"/><path d="M1918.5 717.5C1918.5 723.574 1913.57 728.499 1907.5 728.499 1901.42 728.499 1896.5 723.574 1896.5 717.5 1896.5 711.425 1901.42 706.5 1907.5 706.5 1913.57 706.5 1918.5 711.425 1918.5 717.5Z" stroke="#7F7F7F" stroke-width="3.4375" stroke-linejoin="round" stroke-miterlimit="10" fill="#7F7F7F"/><path d="M2043.5 720.5C2043.5 726.575 2038.57 731.499 2032.5 731.499 2026.42 731.499 2021.5 726.575 2021.5 720.5 2021.5 714.425 2026.42 709.5 2032.5 709.5 2038.57 709.5 2043.5 714.425 2043.5 720.5Z" stroke="#7F7F7F" stroke-width="3.4375" stroke-linejoin="round" stroke-miterlimit="10" fill="#7F7F7F"/></g><g><path d="M283 874 408.013 800.026 533.017 769.025 658.022 764.025 783.026 755.025 908.03 751.025 1032.03 744 1157.04 802.026 1282.04 800.026 1407.05 797.026 1532.05 799.026 1657.05 825.027 1782.06 749.025 1907.06 757.025 2032 759.025" stroke="#E97132" stroke-width="10.3125" stroke-linecap="round" stroke-linejoin="round" stroke-miterlimit="10" fill="none"/></g><g><path d="M293.499 873.5C293.499 879.575 288.575 884.499 282.5 884.499 276.425 884.499 271.5 879.575 271.5 873.5 271.5 867.425 276.425 862.5 282.5 862.5 288.575 862.5 293.499 867.425 293.499 873.5Z" stroke="#E97132" stroke-width="3.4375" stroke-linejoin="round" stroke-miterlimit="10" fill="#E97132"/><path d="M418.499 800.5C418.499 806.575 413.575 811.499 407.5 811.499 401.425 811.499 396.5 806.575 396.5 800.5 396.5 794.425 401.425 789.5 407.5 789.5 413.575 789.5 418.499 794.425 418.499 800.5Z" stroke="#E97132" stroke-width="3.4375" stroke-linejoin="round" stroke-miterlimit="10" fill="#E97132"/><path d="M543.499 769.5C543.499 775.575 538.575 780.499 532.5 780.499 526.425 780.499 521.5 775.575 521.5 769.5 521.5 763.425 526.425 758.5 532.5 758.5 538.575 758.5 543.499 763.425 543.499 769.5Z" stroke="#E97132" stroke-width="3.4375" stroke-linejoin="round" stroke-miterlimit="10" fill="#E97132"/><path d="M668.499 763.5C668.499 769.575 663.575 774.499 657.5 774.499 651.425 774.499 646.5 769.575 646.5 763.5 646.5 757.425 651.425 752.5 657.5 752.5 663.575 752.5 668.499 757.425 668.499 763.5Z" stroke="#E97132" stroke-width="3.4375" stroke-linejoin="round" stroke-miterlimit="10" fill="#E97132"/><path d="M793.499 755.5C793.499 761.575 788.574 766.499 782.5 766.499 776.425 766.499 771.5 761.575 771.5 755.5 771.5 749.425 776.425 744.5 782.5 744.5 788.574 744.5 793.499 749.425 793.499 755.5Z" stroke="#E97132" stroke-width="3.4375" stroke-linejoin="round" stroke-miterlimit="10" fill="#E97132"/><path d="M918.499 751.5C918.499 757.575 913.575 762.499 907.5 762.499 901.425 762.499 896.5 757.575 896.5 751.5 896.5 745.425 901.425 740.5 907.5 740.5 913.575 740.5 918.499 745.425 918.499 751.5Z" stroke="#E97132" stroke-width="3.4375" stroke-linejoin="round" stroke-miterlimit="10" fill="#E97132"/><path d="M1043.5 743.5C1043.5 749.575 1038.57 754.499 1032.5 754.499 1026.42 754.499 1021.5 749.575 1021.5 743.5 1021.5 737.425 1026.42 732.5 1032.5 732.5 1038.57 732.5 1043.5 737.425 1043.5 743.5Z" stroke="#E97132" stroke-width="3.4375" stroke-linejoin="round" stroke-miterlimit="10" fill="#E97132"/><path d="M1168.5 802.5C1168.5 808.575 1163.57 813.499 1157.5 813.499 1151.42 813.499 1146.5 808.575 1146.5 802.5 1146.5 796.425 1151.42 791.5 1157.5 791.5 1163.57 791.5 1168.5 796.425 1168.5 802.5Z" stroke="#E97132" stroke-width="3.4375" stroke-linejoin="round" stroke-miterlimit="10" fill="#E97132"/><path d="M1293.5 799.5C1293.5 805.575 1288.57 810.499 1282.5 810.499 1276.42 810.499 1271.5 805.575 1271.5 799.5 1271.5 793.425 1276.42 788.5 1282.5 788.5 1288.57 788.5 1293.5 793.425 1293.5 799.5Z" stroke="#E97132" stroke-width="3.4375" stroke-linejoin="round" stroke-miterlimit="10" fill="#E97132"/><path d="M1418.5 796.5C1418.5 802.575 1413.57 807.499 1407.5 807.499 1401.42 807.499 1396.5 802.575 1396.5 796.5 1396.5 790.425 1401.42 785.5 1407.5 785.5 1413.57 785.5 1418.5 790.425 1418.5 796.5Z" stroke="#E97132" stroke-width="3.4375" stroke-linejoin="round" stroke-miterlimit="10" fill="#E97132"/><path d="M1543.5 799.5C1543.5 805.575 1538.57 810.499 1532.5 810.499 1526.42 810.499 1521.5 805.575 1521.5 799.5 1521.5 793.425 1526.42 788.5 1532.5 788.5 1538.57 788.5 1543.5 793.425 1543.5 799.5Z" stroke="#E97132" stroke-width="3.4375" stroke-linejoin="round" stroke-miterlimit="10" fill="#E97132"/><path d="M1668.5 824.5C1668.5 830.575 1663.57 835.499 1657.5 835.499 1651.42 835.499 1646.5 830.575 1646.5 824.5 1646.5 818.425 1651.42 813.5 1657.5 813.5 1663.57 813.5 1668.5 818.425 1668.5 824.5Z" stroke="#E97132" stroke-width="3.4375" stroke-linejoin="round" stroke-miterlimit="10" fill="#E97132"/><path d="M1793.5 749.5C1793.5 755.574 1788.57 760.499 1782.5 760.499 1776.42 760.499 1771.5 755.574 1771.5 749.5 1771.5 743.425 1776.42 738.5 1782.5 738.5 1788.57 738.5 1793.5 743.425 1793.5 749.5Z" stroke="#E97132" stroke-width="3.4375" stroke-linejoin="round" stroke-miterlimit="10" fill="#E97132"/><path d="M1918.5 757.5C1918.5 763.575 1913.57 768.499 1907.5 768.499 1901.42 768.499 1896.5 763.575 1896.5 757.5 1896.5 751.425 1901.42 746.5 1907.5 746.5 1913.57 746.5 1918.5 751.425 1918.5 757.5Z" stroke="#E97132" stroke-width="3.4375" stroke-linejoin="round" stroke-miterlimit="10" fill="#E97132"/><path d="M2043.5 759.5C2043.5 765.575 2038.57 770.499 2032.5 770.499 2026.42 770.499 2021.5 765.575 2021.5 759.5 2021.5 753.425 2026.42 748.5 2032.5 748.5 2038.57 748.5 2043.5 753.425 2043.5 759.5Z" stroke="#E97132" stroke-width="3.4375" stroke-linejoin="round" stroke-miterlimit="10" fill="#E97132"/></g><g><path d="M283 282 408.013 191 533.017 193.006 658.022 227.007 783.026 216.007 908.03 215.007 1032.03 192.006 1157.04 215.007 1282.04 199.007 1407.05 201.007 1532.05 196.006 1657.05 231.008 1782.06 193.006 1907.06 212.007 2032 230.008" stroke="#196B24" stroke-width="10.3125" stroke-linecap="round" stroke-linejoin="round" stroke-miterlimit="10" fill="none"/></g><g><path d="M293.499 281.5C293.499 287.575 288.575 292.499 282.5 292.499 276.425 292.499 271.5 287.575 271.5 281.5 271.5 275.425 276.425 270.5 282.5 270.5 288.575 270.5 293.499 275.425 293.499 281.5Z" stroke="#196B24" stroke-width="3.4375" stroke-linejoin="round" stroke-miterlimit="10" fill="#196B24"/><path d="M418.499 191.5C418.499 197.575 413.575 202.499 407.5 202.499 401.425 202.499 396.5 197.575 396.5 191.5 396.5 185.425 401.425 180.5 407.5 180.5 413.575 180.5 418.499 185.425 418.499 191.5Z" stroke="#196B24" stroke-width="3.4375" stroke-linejoin="round" stroke-miterlimit="10" fill="#196B24"/><path d="M543.499 193.5C543.499 199.575 538.575 204.499 532.5 204.499 526.425 204.499 521.5 199.575 521.5 193.5 521.5 187.425 526.425 182.5 532.5 182.5 538.575 182.5 543.499 187.425 543.499 193.5Z" stroke="#196B24" stroke-width="3.4375" stroke-linejoin="round" stroke-miterlimit="10" fill="#196B24"/><path d="M668.499 226.5C668.499 232.575 663.575 237.499 657.5 237.499 651.425 237.499 646.5 232.575 646.5 226.5 646.5 220.425 651.425 215.5 657.5 215.5 663.575 215.5 668.499 220.425 668.499 226.5Z" stroke="#196B24" stroke-width="3.4375" stroke-linejoin="round" stroke-miterlimit="10" fill="#196B24"/><path d="M793.499 216.5C793.499 222.575 788.574 227.499 782.5 227.499 776.425 227.499 771.5 222.575 771.5 216.5 771.5 210.425 776.425 205.5 782.5 205.5 788.574 205.5 793.499 210.425 793.499 216.5Z" stroke="#196B24" stroke-width="3.4375" stroke-linejoin="round" stroke-miterlimit="10" fill="#196B24"/><path d="M918.499 215.5C918.499 221.575 913.575 226.499 907.5 226.499 901.425 226.499 896.5 221.575 896.5 215.5 896.5 209.425 901.425 204.5 907.5 204.5 913.575 204.5 918.499 209.425 918.499 215.5Z" stroke="#196B24" stroke-width="3.4375" stroke-linejoin="round" stroke-miterlimit="10" fill="#196B24"/><path d="M1043.5 192.5C1043.5 198.575 1038.57 203.499 1032.5 203.499 1026.42 203.499 1021.5 198.575 1021.5 192.5 1021.5 186.425 1026.42 181.5 1032.5 181.5 1038.57 181.5 1043.5 186.425 1043.5 192.5Z" stroke="#196B24" stroke-width="3.4375" stroke-linejoin="round" stroke-miterlimit="10" fill="#196B24"/><path d="M1168.5 214.5C1168.5 220.575 1163.57 225.499 1157.5 225.499 1151.42 225.499 1146.5 220.575 1146.5 214.5 1146.5 208.425 1151.42 203.5 1157.5 203.5 1163.57 203.5 1168.5 208.425 1168.5 214.5Z" stroke="#196B24" stroke-width="3.4375" stroke-linejoin="round" stroke-miterlimit="10" fill="#196B24"/><path d="M1293.5 199.499C1293.5 205.574 1288.57 210.499 1282.5 210.499 1276.42 210.499 1271.5 205.574 1271.5 199.499 1271.5 193.425 1276.42 188.5 1282.5 188.5 1288.57 188.5 1293.5 193.425 1293.5 199.499Z" stroke="#196B24" stroke-width="3.4375" stroke-linejoin="round" stroke-miterlimit="10" fill="#196B24"/><path d="M1418.5 201.5C1418.5 207.575 1413.57 212.499 1407.5 212.499 1401.42 212.499 1396.5 207.575 1396.5 201.5 1396.5 195.425 1401.42 190.5 1407.5 190.5 1413.57 190.5 1418.5 195.425 1418.5 201.5Z" stroke="#196B24" stroke-width="3.4375" stroke-linejoin="round" stroke-miterlimit="10" fill="#196B24"/><path d="M1543.5 195.5C1543.5 201.575 1538.57 206.499 1532.5 206.499 1526.42 206.499 1521.5 201.575 1521.5 195.5 1521.5 189.425 1526.42 184.5 1532.5 184.5 1538.57 184.5 1543.5 189.425 1543.5 195.5Z" stroke="#196B24" stroke-width="3.4375" stroke-linejoin="round" stroke-miterlimit="10" fill="#196B24"/><path d="M1668.5 231.5C1668.5 237.575 1663.57 242.499 1657.5 242.499 1651.42 242.499 1646.5 237.575 1646.5 231.5 1646.5 225.425 1651.42 220.5 1657.5 220.5 1663.57 220.5 1668.5 225.425 1668.5 231.5Z" stroke="#196B24" stroke-width="3.4375" stroke-linejoin="round" stroke-miterlimit="10" fill="#196B24"/><path d="M1793.5 192.5C1793.5 198.575 1788.57 203.499 1782.5 203.499 1776.42 203.499 1771.5 198.575 1771.5 192.5 1771.5 186.425 1776.42 181.5 1782.5 181.5 1788.57 181.5 1793.5 186.425 1793.5 192.5Z" stroke="#196B24" stroke-width="3.4375" stroke-linejoin="round" stroke-miterlimit="10" fill="#196B24"/><path d="M1918.5 211.5C1918.5 217.574 1913.57 222.499 1907.5 222.499 1901.42 222.499 1896.5 217.574 1896.5 211.5 1896.5 205.425 1901.42 200.5 1907.5 200.5 1913.57 200.5 1918.5 205.425 1918.5 211.5Z" stroke="#196B24" stroke-width="3.4375" stroke-linejoin="round" stroke-miterlimit="10" fill="#196B24"/><path d="M2043.5 230.5C2043.5 236.575 2038.57 241.499 2032.5 241.499 2026.42 241.499 2021.5 236.575 2021.5 230.5 2021.5 224.425 2026.42 219.5 2032.5 219.5 2038.57 219.5 2043.5 224.425 2043.5 230.5Z" stroke="#196B24" stroke-width="3.4375" stroke-linejoin="round" stroke-miterlimit="10" fill="#196B24"/></g><g><path d="M283 234.008 408.013 195.006 533.017 164.005 658.022 184.006 783.026 178.006 908.03 141 1032.03 177.006 1157.04 191.006 1282.04 147.005 1407.05 165.005 1532.05 154.005 1657.05 204.007 1782.06 235.008 1907.06 248 2032 219.007" stroke="#0F9ED5" stroke-width="10.3125" stroke-linecap="round" stroke-linejoin="round" stroke-miterlimit="10" fill="none"/></g><g><path d="M293.499 234.5C293.499 240.575 288.575 245.499 282.5 245.499 276.425 245.499 271.5 240.575 271.5 234.5 271.5 228.425 276.425 223.5 282.5 223.5 288.575 223.5 293.499 228.425 293.499 234.5Z" stroke="#0F9ED5" stroke-width="3.4375" stroke-linejoin="round" stroke-miterlimit="10" fill="#0F9ED5"/><path d="M418.499 195.5C418.499 201.575 413.575 206.499 407.5 206.499 401.425 206.499 396.5 201.575 396.5 195.5 396.5 189.425 401.425 184.5 407.5 184.5 413.575 184.5 418.499 189.425 418.499 195.5Z" stroke="#0F9ED5" stroke-width="3.4375" stroke-linejoin="round" stroke-miterlimit="10" fill="#0F9ED5"/><path d="M543.499 164.5C543.499 170.575 538.575 175.499 532.5 175.499 526.425 175.499 521.5 170.575 521.5 164.5 521.5 158.425 526.425 153.5 532.5 153.5 538.575 153.5 543.499 158.425 543.499 164.5Z" stroke="#0F9ED5" stroke-width="3.4375" stroke-linejoin="round" stroke-miterlimit="10" fill="#0F9ED5"/><path d="M668.499 184.5C668.499 190.575 663.575 195.499 657.5 195.499 651.425 195.499 646.5 190.575 646.5 184.5 646.5 178.425 651.425 173.5 657.5 173.5 663.575 173.5 668.499 178.425 668.499 184.5Z" stroke="#0F9ED5" stroke-width="3.4375" stroke-linejoin="round" stroke-miterlimit="10" fill="#0F9ED5"/><path d="M793.499 178.5C793.499 184.574 788.574 189.499 782.5 189.499 776.425 189.499 771.5 184.574 771.5 178.5 771.5 172.425 776.425 167.5 782.5 167.5 788.574 167.5 793.499 172.425 793.499 178.5Z" stroke="#0F9ED5" stroke-width="3.4375" stroke-linejoin="round" stroke-miterlimit="10" fill="#0F9ED5"/><path d="M918.499 140.5C918.499 146.575 913.575 151.499 907.5 151.499 901.425 151.499 896.5 146.575 896.5 140.5 896.5 134.425 901.425 129.5 907.5 129.5 913.575 129.5 918.499 134.425 918.499 140.5Z" stroke="#0F9ED5" stroke-width="3.4375" stroke-linejoin="round" stroke-miterlimit="10" fill="#0F9ED5"/><path d="M1043.5 176.5C1043.5 182.575 1038.57 187.499 1032.5 187.499 1026.42 187.499 1021.5 182.575 1021.5 176.5 1021.5 170.425 1026.42 165.5 1032.5 165.5 1038.57 165.5 1043.5 170.425 1043.5 176.5Z" stroke="#0F9ED5" stroke-width="3.4375" stroke-linejoin="round" stroke-miterlimit="10" fill="#0F9ED5"/><path d="M1168.5 191.5C1168.5 197.575 1163.57 202.499 1157.5 202.499 1151.42 202.499 1146.5 197.575 1146.5 191.5 1146.5 185.425 1151.42 180.5 1157.5 180.5 1163.57 180.5 1168.5 185.425 1168.5 191.5Z" stroke="#0F9ED5" stroke-width="3.4375" stroke-linejoin="round" stroke-miterlimit="10" fill="#0F9ED5"/><path d="M1293.5 147.5C1293.5 153.575 1288.57 158.499 1282.5 158.499 1276.42 158.499 1271.5 153.575 1271.5 147.5 1271.5 141.425 1276.42 136.5 1282.5 136.5 1288.57 136.5 1293.5 141.425 1293.5 147.5Z" stroke="#0F9ED5" stroke-width="3.4375" stroke-linejoin="round" stroke-miterlimit="10" fill="#0F9ED5"/><path d="M1418.5 165.5C1418.5 171.575 1413.57 176.499 1407.5 176.499 1401.42 176.499 1396.5 171.575 1396.5 165.5 1396.5 159.425 1401.42 154.5 1407.5 154.5 1413.57 154.5 1418.5 159.425 1418.5 165.5Z" stroke="#0F9ED5" stroke-width="3.4375" stroke-linejoin="round" stroke-miterlimit="10" fill="#0F9ED5"/><path d="M1543.5 154.5C1543.5 160.575 1538.57 165.499 1532.5 165.499 1526.42 165.499 1521.5 160.575 1521.5 154.5 1521.5 148.425 1526.42 143.5 1532.5 143.5 1538.57 143.5 1543.5 148.425 1543.5 154.5Z" stroke="#0F9ED5" stroke-width="3.4375" stroke-linejoin="round" stroke-miterlimit="10" fill="#0F9ED5"/><path d="M1668.5 203.5C1668.5 209.575 1663.57 214.499 1657.5 214.499 1651.42 214.499 1646.5 209.575 1646.5 203.5 1646.5 197.425 1651.42 192.5 1657.5 192.5 1663.57 192.5 1668.5 197.425 1668.5 203.5Z" stroke="#0F9ED5" stroke-width="3.4375" stroke-linejoin="round" stroke-miterlimit="10" fill="#0F9ED5"/><path d="M1793.5 235.5C1793.5 241.575 1788.57 246.499 1782.5 246.499 1776.42 246.499 1771.5 241.575 1771.5 235.5 1771.5 229.425 1776.42 224.5 1782.5 224.5 1788.57 224.5 1793.5 229.425 1793.5 235.5Z" stroke="#0F9ED5" stroke-width="3.4375" stroke-linejoin="round" stroke-miterlimit="10" fill="#0F9ED5"/><path d="M1918.5 248.5C1918.5 254.575 1913.57 259.499 1907.5 259.499 1901.42 259.499 1896.5 254.575 1896.5 248.5 1896.5 242.425 1901.42 237.5 1907.5 237.5 1913.57 237.5 1918.5 242.425 1918.5 248.5Z" stroke="#0F9ED5" stroke-width="3.4375" stroke-linejoin="round" stroke-miterlimit="10" fill="#0F9ED5"/><path d="M2043.5 219.5C2043.5 225.575 2038.57 230.499 2032.5 230.499 2026.42 230.499 2021.5 225.575 2021.5 219.5 2021.5 213.425 2026.42 208.5 2032.5 208.5 2038.57 208.5 2043.5 213.425 2043.5 219.5Z" stroke="#0F9ED5" stroke-width="3.4375" stroke-linejoin="round" stroke-miterlimit="10" fill="#0F9ED5"/></g><g><text fill="#595959" font-family="Aptos,Aptos_MSFontService,sans-serif" font-weight="400" font-size="41" transform="matrix(1 0 0 1 160.233 1161)">0</text></g><g><text fill="#595959" font-family="Aptos,Aptos_MSFontService,sans-serif" font-weight="400" font-size="41" transform="matrix(1 0 0 1 138.187 1039)">10</text></g><g><text fill="#595959" font-family="Aptos,Aptos_MSFontService,sans-serif" font-weight="400" font-size="41" transform="matrix(1 0 0 1 138.187 917)">20</text></g><g><text fill="#595959" font-family="Aptos,Aptos_MSFontService,sans-serif" font-weight="400" font-size="41" transform="matrix(1 0 0 1 138.187 795)">30</text></g><g><text fill="#595959" font-family="Aptos,Aptos_MSFontService,sans-serif" font-weight="400" font-size="41" transform="matrix(1 0 0 1 138.187 673)">40</text></g><g><text fill="#595959" font-family="Aptos,Aptos_MSFontService,sans-serif" font-weight="400" font-size="41" transform="matrix(1 0 0 1 138.187 551)">50</text></g><g><text fill="#595959" font-family="Aptos,Aptos_MSFontService,sans-serif" font-weight="400" font-size="41" transform="matrix(1 0 0 1 138.187 428)">60</text></g><g><text fill="#595959" font-family="Aptos,Aptos_MSFontService,sans-serif" font-weight="400" font-size="41" transform="matrix(1 0 0 1 138.187 306)">70</text></g><g><text fill="#595959" font-family="Aptos,Aptos_MSFontService,sans-serif" font-weight="400" font-size="41" transform="matrix(1 0 0 1 138.187 184)">80</text></g><g><text fill="#595959" font-family="Aptos,Aptos_MSFontService,sans-serif" font-weight="400" font-size="41" transform="matrix(1 0 0 1 138.187 62)">90</text></g><g><text fill="#595959" font-family="Aptos,Aptos_MSFontService,sans-serif" font-weight="400" font-size="50" transform="matrix(0.798635 -0.601815 0.601815 0.798635 206.58 1284)">2009</text></g><g><text fill="#595959" font-family="Aptos,Aptos_MSFontService,sans-serif" font-weight="400" font-size="50" transform="matrix(0.798635 -0.601815 0.601815 0.798635 331.528 1284)">2010</text></g><g><text fill="#595959" font-family="Aptos,Aptos_MSFontService,sans-serif" font-weight="400" font-size="50" transform="matrix(0.798635 -0.601815 0.601815 0.798635 456.476 1284)">2011</text></g><g><text fill="#595959" font-family="Aptos,Aptos_MSFontService,sans-serif" font-weight="400" font-size="50" transform="matrix(0.798635 -0.601815 0.601815 0.798635 581.424 1284)">2012</text></g><g><text fill="#595959" font-family="Aptos,Aptos_MSFontService,sans-serif" font-weight="400" font-size="50" transform="matrix(0.798635 -0.601815 0.601815 0.798635 706.372 1284)">2013</text></g><g><text fill="#595959" font-family="Aptos,Aptos_MSFontService,sans-serif" font-weight="400" font-size="50" transform="matrix(0.798635 -0.601815 0.601815 0.798635 831.32 1284)">2014</text></g><g><text fill="#595959" font-family="Aptos,Aptos_MSFontService,sans-serif" font-weight="400" font-size="50" transform="matrix(0.798635 -0.601815 0.601815 0.798635 956.268 1284)">2015</text></g><g><text fill="#595959" font-family="Aptos,Aptos_MSFontService,sans-serif" font-weight="400" font-size="50" transform="matrix(0.798635 -0.601815 0.601815 0.798635 1081.22 1284)">2016</text></g><g><text fill="#595959" font-family="Aptos,Aptos_MSFontService,sans-serif" font-weight="400" font-size="50" transform="matrix(0.798635 -0.601815 0.601815 0.798635 1206.16 1284)">2017</text></g><g><text fill="#595959" font-family="Aptos,Aptos_MSFontService,sans-serif" font-weight="400" font-size="50" transform="matrix(0.798635 -0.601815 0.601815 0.798635 1331.11 1284)">2018</text></g><g><text fill="#595959" font-family="Aptos,Aptos_MSFontService,sans-serif" font-weight="400" font-size="50" transform="matrix(0.798635 -0.601815 0.601815 0.798635 1456.06 1284)">2019</text></g><g><text fill="#595959" font-family="Aptos,Aptos_MSFontService,sans-serif" font-weight="400" font-size="50" transform="matrix(0.798635 -0.601815 0.601815 0.798635 1581.01 1284)">2020</text></g><g><text fill="#595959" font-family="Aptos,Aptos_MSFontService,sans-serif" font-weight="400" font-size="50" transform="matrix(0.798635 -0.601815 0.601815 0.798635 1705.96 1284)">2021</text></g><g><text fill="#595959" font-family="Aptos,Aptos_MSFontService,sans-serif" font-weight="400" font-size="50" transform="matrix(0.798635 -0.601815 0.601815 0.798635 1830.9 1284)">2022</text></g><g><text fill="#595959" font-family="Aptos,Aptos_MSFontService,sans-serif" font-weight="400" font-size="50" transform="matrix(0.798635 -0.601815 0.601815 0.798635 1955.85 1284)">2023</text></g><g><text fill="#595959" font-family="Aptos,Aptos_MSFontService,sans-serif" font-weight="400" font-size="55" transform="matrix(6.12323e-17 -1 1 6.12323e-17 81.7898 1130)">CKD Stage 3</text></g><g><text fill="#595959" font-family="Aptos,Aptos_MSFontService,sans-serif" font-weight="400" font-size="55" transform="matrix(6.12323e-17 -1 1 6.12323e-17 81.7898 810)">-</text></g><g><text fill="#595959" font-family="Aptos,Aptos_MSFontService,sans-serif" font-weight="400" font-size="55" transform="matrix(6.12323e-17 -1 1 6.12323e-17 81.7898 795)">5 with Diagnosis Code (%)</text></g><g><path d="M151 1377 267 1377" stroke="#7F7F7F" stroke-width="10.3125" stroke-linecap="round" stroke-linejoin="round" stroke-miterlimit="10" stroke-dasharray="0 20.625" fill="none" fill-rule="evenodd"/></g><g><path d="M219 1377C219 1383.07 214.075 1388 208 1388 201.925 1388 197 1383.07 197 1377 197 1370.92 201.925 1366 208 1366 214.075 1366 219 1370.92 219 1377Z" stroke="#7F7F7F" stroke-width="3.4375" stroke-linejoin="round" stroke-miterlimit="10" fill="#7F7F7F"/></g><g><text fill="#595959" font-family="Aptos,Aptos_MSFontService,sans-serif" font-weight="400" font-size="64" transform="matrix(1 0 0 1 279.39 1395)">Overall</text></g><g><path d="M520 1377 636 1377" stroke="#E97132" stroke-width="10.3125" stroke-linecap="round" stroke-linejoin="round" stroke-miterlimit="10" fill="none" fill-rule="evenodd"/></g><g><path d="M589 1377C589 1383.07 584.075 1388 578 1388 571.925 1388 567 1383.07 567 1377 567 1370.92 571.925 1366 578 1366 584.075 1366 589 1370.92 589 1377Z" stroke="#E97132" stroke-width="3.4375" stroke-linejoin="round" stroke-miterlimit="10" fill="#E97132"/></g><g><text fill="#595959" font-family="Aptos,Aptos_MSFontService,sans-serif" font-weight="400" font-size="64" transform="matrix(1 0 0 1 648.613 1395)">CKD Stage 3</text></g><g><path d="M1032 1377 1148 1377" stroke="#196B24" stroke-width="10.3125" stroke-linecap="round" stroke-linejoin="round" stroke-miterlimit="10" fill="none" fill-rule="evenodd"/></g><g><path d="M1100.02 1377C1100.02 1383.07 1095.31 1388 1089.5 1388 1083.69 1388 1078.98 1383.07 1078.98 1377 1078.98 1370.92 1083.69 1366 1089.5 1366 1095.31 1366 1100.02 1370.92 1100.02 1377Z" stroke="#196B24" stroke-width="3.4375" stroke-linejoin="round" stroke-miterlimit="10" fill="#196B24"/></g><g><text fill="#595959" font-family="Aptos,Aptos_MSFontService,sans-serif" font-weight="400" font-size="64" transform="matrix(1 0 0 1 1160.36 1395)">CKD Stage 4</text></g><g><path d="M1544 1377 1659 1377" stroke="#0F9ED5" stroke-width="10.3125" stroke-linecap="round" stroke-linejoin="round" stroke-miterlimit="10" fill="none" fill-rule="evenodd"/></g><g><path d="M1612 1377C1612 1383.07 1607.08 1388 1601 1388 1594.93 1388 1590 1383.07 1590 1377 1590 1370.92 1594.93 1366 1601 1366 1607.08 1366 1612 1370.92 1612 1377Z" stroke="#0F9ED5" stroke-width="3.4375" stroke-linejoin="round" stroke-miterlimit="10" fill="#0F9ED5"/></g><g><text fill="#595959" font-family="Aptos,Aptos_MSFontService,sans-serif" font-weight="400" font-size="64" transform="matrix(1 0 0 1 1672.1 1395)">CKD Stage 5</text></g></g></svg>